<?xml version="1.0" encoding="UTF-8"?>
<svg width="12px" height="14px" viewBox="0 0 12 14" version="1.1" xmlns="http://www.w3.org/2000/svg" xmlns:xlink="http://www.w3.org/1999/xlink">
    <title>arrow-redo</title>
    <g id="Page-1" stroke="none" stroke-width="1" fill="none" fill-rule="evenodd">
        <path d="M5.90316462,2.18254398 L5.90316462,0.806073173 C5.90316462,0.690220581 5.83661222,0.584120009 5.73095126,0.532496847 C5.62586868,0.480305479 5.49976421,0.491776803 5.40519108,0.561172956 L2.91412774,2.39646736 C2.83589867,2.45439366 2.78977932,2.54500875 2.78977932,2.64136905 C2.78977932,2.73772935 2.83589867,2.82833416 2.91412774,2.88627074 L5.40519108,4.72156514 C5.4997657,4.79096276 5.62587167,4.80186001 5.73095126,4.75024125 C5.8366182,4.69804988 5.90316462,4.59252339 5.90316462,4.47666493 L5.90316462,3.10019412 C7.18284604,3.10019412 8.41051821,3.59973189 9.31544913,4.48870446 C10.2209181,5.37767702 10.7293981,6.58387655 10.7293981,7.84097981 C10.7293981,9.09872909 10.2209181,10.3048258 9.31544913,11.1938425 C8.41056305,12.082815 7.18277131,12.5823528 5.90316462,12.5823528 C4.62355793,12.5823528 3.39581104,12.082815 2.49088012,11.1938425 C1.58541118,10.3048699 1.07693117,9.09867036 1.07693117,7.84097981 L1.07693117,7.53529317 C1.07693117,7.28178763 0.867937709,7.07646957 0.609894156,7.07646957 C0.352433464,7.07646957 0.142857143,7.28178763 0.142857143,7.53529317 L0.142857143,7.84097981 C0.142857143,9.34195699 0.750005259,10.7814151 1.83001901,11.8425089 C2.91063057,12.9041166 4.37533337,13.5 5.90317957,13.5 C7.43102577,13.5 8.89565384,12.9041019 9.97634013,11.8425089 C11.0563688,10.7814738 11.663502,9.34195699 11.663502,7.84097981 C11.663502,6.34058993 11.0563539,4.90113182 9.97634013,3.840038 C8.89572857,2.7784303 7.43102577,2.18254692 5.90317957,2.18254692 L5.90316462,2.18254398 Z" id="arrow-redo" fill="#323739" fill-rule="nonzero" transform="translate(5.903180, 7.000000) scale(-1, 1) translate(-5.903180, -7.000000) "></path>
    </g>
</svg>