<?xml version="1.0" encoding="UTF-8"?>
<svg width="19px" height="18px" viewBox="0 0 19 18" version="1.1" xmlns="http://www.w3.org/2000/svg" xmlns:xlink="http://www.w3.org/1999/xlink">
    <title>mega-credits</title>
    <g id="Page-1" stroke="none" stroke-width="1" fill="none" fill-rule="evenodd">
        <g id="mega-credits" transform="translate(0.500000, 0.000000)">
            <polygon id="Fill-29-Copy" fill="#FFB21D" points="3.12620642 1.84741111e-13 1.27897692e-13 3.12636259 1.27897692e-13 14.8736466 3.12620642 18.0000092 14.8736466 18.0000092 17.999853 14.8736466 17.999853 3.12636259 14.8736466 1.84741111e-13"></polygon>
            <path d="M9.65264137,3.27868519 C12.8318099,3.27868519 15.4090353,5.85591054 15.4090353,9.03507912 C15.4090353,12.1403135 12.950287,14.6712765 9.87344233,14.7873163 L9.65264137,14.791473 L9.65264137,12.791473 C11.7272404,12.791473 13.4090353,11.1096782 13.4090353,9.03507912 C13.4090353,6.96048004 11.7272404,5.27868519 9.65264137,5.27868519 C7.64496484,5.27868519 6.00515908,6.85372719 5.90145431,8.83558097 L5.89624744,9.03507912 L3.89624744,9.03507912 C3.89624744,5.85591054 6.47347279,3.27868519 9.65264137,3.27868519 Z" id="Path" fill="#FFECB0" fill-rule="nonzero" transform="translate(9.652641, 9.035079) rotate(-135.000000) translate(-9.652641, -9.035079) "></path>
            <polygon id="Path" fill="#FFECB0" fill-rule="nonzero" points="8.15923797 7.73383818 8.15923797 8.73383818 3.37620569 8.73383818 3.37620569 7.73383818"></polygon>
            <polygon id="Path" fill="#FFECB0" fill-rule="nonzero" points="8.15923797 9.54382345 8.15923797 10.5438235 3.37620569 10.5438235 3.37620569 9.54382345"></polygon>
        </g>
    </g>
</svg>