<?xml version="1.0" encoding="UTF-8"?>
<svg width="12px" height="14px" viewBox="0 0 12 14" version="1.1" xmlns="http://www.w3.org/2000/svg" xmlns:xlink="http://www.w3.org/1999/xlink">
    <title>arrow-undo</title>
    <g id="Page-1" stroke="none" stroke-width="1" fill="none" fill-rule="evenodd">
        <path d="M6.26030748,0.806073173 C6.26030748,0.690220581 6.19375508,0.584120009 6.08809412,0.532496847 C5.98301154,0.480305479 5.85690706,0.491776803 5.76233394,0.561172956 L3.2712706,2.39646736 C3.19304153,2.45439366 3.14692218,2.54500875 3.14692218,2.64136905 C3.14692218,2.73772935 3.19304153,2.82833416 3.2712706,2.88627074 L5.76233394,4.72156514 C5.85690856,4.79096276 5.98301453,4.80186001 6.08809412,4.75024125 C6.19376106,4.69804988 6.26030748,4.59252339 6.26030748,4.47666493 L6.26030748,3.10019412 C7.53998889,3.10019412 8.76766107,3.59973189 9.67259198,4.48870446 C10.5780609,5.37767702 11.0865409,6.58387655 11.0865409,7.84097981 C11.0865409,9.09872909 10.5780609,10.3048258 9.67259198,11.1938425 C8.7677059,12.082815 7.53991417,12.5823528 6.26030748,12.5823528 C4.98070079,12.5823528 3.75295389,12.082815 2.84802298,11.1938425 C1.94255403,10.3048699 1.43407403,9.09867036 1.43407403,7.84097981 L1.43407403,7.53529317 C1.43407403,7.28178763 1.22508057,7.07646957 0.967037013,7.07646957 C0.709576321,7.07646957 0.5,7.28178763 0.5,7.53529317 L0.5,7.84097981 C0.5,9.34195699 1.10714812,10.7814151 2.18716187,11.8425089 C3.26777343,12.9041166 4.73247622,13.5 6.26032243,13.5 C7.78816863,13.5 9.2527967,12.9041019 10.333483,11.8425089 C11.4135117,10.7814738 12.0206449,9.34195699 12.0206449,7.84097981 C12.0206449,6.34058993 11.4134967,4.90113182 10.333483,3.840038 C9.25287142,2.7784303 7.78816863,2.18254692 6.26032243,2.18254692 L6.26030748,0.806073173 Z" id="arrow-undo" fill="#323739" fill-rule="nonzero"></path>
    </g>
</svg>