<?xml version="1.0" encoding="UTF-8"?>
<svg width="18px" height="19px" viewBox="0 0 18 19" version="1.1" xmlns="http://www.w3.org/2000/svg" xmlns:xlink="http://www.w3.org/1999/xlink">
    <title>plants</title>
    <g id="Page-1" stroke="none" stroke-width="1" fill="none" fill-rule="evenodd">
        <g id="plants" transform="translate(0.000000, 0.500000)">
            <rect id="Rectangle" fill="#197F47" x="0" y="0" width="18" height="18" rx="2"></rect>
            <g id="Group-4" transform="translate(3.006427, 3.564075)"></g>
            <path d="M13.7554432,4.32942911 C13.7554432,4.32942911 7.69016596,4.08452427 5.61210034,5.8764202 C3.53403473,7.66831612 3.19373949,10.5444977 4.76942652,12.3717874 C4.86999369,12.4884825 4.97888995,12.597666 5.09472706,12.700081 C4.82924525,13.1183569 4.59057558,13.5582434 4.38193026,14.0198578 C4.29145876,14.2202397 4.38046944,14.4559509 4.58076417,14.5464071 C4.61187865,14.5604247 4.64374564,14.5701746 4.67579648,14.575826 C4.85068262,14.6066632 5.03085948,14.5168405 5.10731341,14.3475732 C5.29465322,13.9329404 5.50768283,13.5371161 5.74434794,13.1605462 C7.51925609,14.1747786 10.1858895,14.0116005 11.4788966,12.8003268 C13.9244131,10.5094418 13.7554432,4.32942911 13.7554432,4.32942911" id="Fill-34" fill="#8BC139"></path>
            <path d="M5.87878074,12.2689825 C5.86083923,12.2658189 5.84319434,12.258936 5.82726,12.2479543 C5.76663784,12.2067321 5.75101117,12.124232 5.79221801,12.0636969 C7.80090954,9.11494494 10.508508,6.30945506 12.5298167,5.08237762 C12.5924464,5.04447851 12.6739883,5.0643345 12.7120615,5.12699485 C12.7500477,5.18963985 12.7301047,5.27116637 12.6675314,5.30925503 C10.6756165,6.51834633 8.00079123,9.29279595 6.01158908,12.2130147 C5.98118974,12.2575847 5.9285989,12.2777668 5.87878074,12.2689825" id="Fill-35" fill="#197F47"></path>
        </g>
    </g>
</svg>