<?xml version="1.0" encoding="UTF-8"?>
<svg width="19px" height="19px" viewBox="0 0 19 19" version="1.1" xmlns="http://www.w3.org/2000/svg" xmlns:xlink="http://www.w3.org/1999/xlink">
    <title>steel</title>
    <g id="Page-1" stroke="none" stroke-width="1" fill="none" fill-rule="evenodd">
        <g id="steel" transform="translate(0.500000, 0.500000)">
            <g id="Rectangle-2" fill="#533B28">
                <rect id="Rectangle" x="0" y="0" width="18" height="18" rx="2"></rect>
            </g>
            <g id="Group" transform="translate(2.334931, 2.998947)" fill="#D6A375">
                <path d="M4.81681234,1.09056 C4.48921234,0.76641 4.15396234,0.45321 3.83776234,0.13266 L3.83806234,0.13236 C3.77011234,0.06171 3.66151234,0.05001 3.58036234,0.10521 C3.52306234,0.14151 3.48781234,0.20496 3.48721234,0.27321 L3.45766234,1.67766 L3.45766234,1.67826 L3.44236234,2.09196 L3.44266234,2.09181 C3.44296234,2.09196 3.44266234,2.09226 3.44266234,2.09226 L3.42931234,2.48901 L3.12061234,2.76996 L2.80726234,3.05526 L2.42401234,3.05211 C2.42131234,3.05211 2.41876234,3.05181 2.41636234,3.05211 L2.40796234,3.05211 L2.01946234,3.06486 L1.71586234,2.79051 L1.41736234,2.52096 L1.41376234,2.12721 L1.41286234,2.12691 L1.40851234,1.71126 L1.40851234,1.71081 L1.41241234,0.30861 L1.41211234,0.30831 C1.41316234,0.23736 1.37656234,0.17076 1.31596234,0.13401 C1.31266234,0.13176 1.30906234,0.12981 1.30546234,0.12786 C1.22596234,0.08211 1.12531234,0.09681 1.06126234,0.16296 C0.73786234,0.49146 0.39406234,0.81261 0.05896234,1.14426 L0.05956234,1.14426 C0.02071234,1.18251 -0.000587660028,1.23486 5.86197757e-14,1.28916 L0.01921234,3.03906 C0.01981234,3.09501 0.04381234,3.14811 0.08536234,3.18576 L1.40491234,4.37886 C1.44376234,4.41381 1.49386234,4.43241 1.54591234,4.43076 L2.40496234,4.40241 L3.26371234,4.40991 C3.31411234,4.41051 3.36301234,4.39161 3.40036234,4.35816 L4.74991234,3.13161 C4.78966234,3.09501 4.81366234,3.04401 4.81546234,2.99001 L4.87621234,1.24011 C4.87816234,1.18386 4.85686234,1.13001 4.81696234,1.09056 L4.81681234,1.09056 Z" id="Fill-5"></path>
                <path d="M10.1747673,11.8042886 L9.16181734,11.80008 C8.84231734,11.79783 8.59196734,11.35953 8.60786734,10.83768 L8.86751734,2.85543 L10.4330673,2.86173 C10.5149673,5.08593 10.6547673,8.96253 10.7239173,10.84848 C10.7440173,11.36808 10.4909673,11.80653 10.1747673,11.8042886 Z" id="Fill-7"></path>
                <path d="M7.41383734,1.9116 C7.41413734,2.15385 7.21733734,2.3508 6.97508734,2.35050034 L6.49823734,2.34885 C6.25763734,2.3469 6.06263734,2.15205 6.06098734,1.9116 L6.05783734,0.54255 C6.05828734,0.3003 6.25478734,0.10365 6.49673734,0.10365 L6.97193734,0.10365 C7.21268734,0.1056 7.40918734,0.30225 7.40918734,0.5409 L7.40918734,0.6576 L7.79123734,0.6591 L7.79588734,1.8027 L7.41383734,1.80135 L7.41383734,1.9116 Z" id="Fill-9"></path>
                <path d="M11.6003523,0.7554 C11.4242523,0.6927 11.2367523,0.66255 11.0465523,0.66105 C10.9793523,0.66105 10.9346523,0.6081 10.9349508,0.54945 C10.9364523,0.4884 10.9853523,0.4395 11.0465523,0.43785 C11.2618023,0.4395 11.4727023,0.47415 11.6726523,0.5451 C11.7307023,0.56535 11.7623523,0.62835 11.7419523,0.6864 C11.7214023,0.74415 11.6567523,0.77415 11.6003523,0.7554 L11.6003523,0.7554 Z M13.3840023,2.11785 C13.2646023,0.91275 12.2591523,0.00195 11.0461023,2.8643754e-14 L8.56690234,2.8643754e-14 C8.25220234,2.8643754e-14 8.01460234,0.25635 8.01460234,0.5523 L8.01940234,1.9197 C8.01940234,2.2155 8.25535234,2.4642 8.57005234,2.4672 L10.6124523,2.4735 C10.9177023,2.4735 11.1647523,2.2266 11.1647523,1.9212 L11.1662523,1.75605 C11.8520523,1.284 12.8482023,1.55925 13.1738523,2.1807 C13.1989023,2.22765 13.2539523,2.25165 13.3042023,2.2359 C13.3546023,2.22 13.3876023,2.17125 13.3841523,2.1177 L13.3840023,2.11785 Z" id="Fill-11"></path>
                <path d="M2.94679234,11.8042871 L1.93384234,11.80098 C1.61449234,11.79933 1.36399234,11.45778 1.38004234,11.05128 L1.63954234,4.83378 L3.20509234,4.83873 C3.28699234,6.57108 3.42679234,9.59073 3.49594234,11.05968 C3.51604234,11.46453 3.26314234,11.80608 2.94679234,11.8042871 Z" id="Fill-13"></path>
            </g>
        </g>
    </g>
</svg>