<?xml version="1.0" encoding="UTF-8"?>
<svg width="17px" height="32px" viewBox="0 0 17 32" version="1.1" xmlns="http://www.w3.org/2000/svg" xmlns:xlink="http://www.w3.org/1999/xlink">
    <title>temperature</title>
    <g id="Page-1" stroke="none" stroke-width="1" fill="none" fill-rule="evenodd">
        <g id="temperature" transform="translate(0.000000, 0.500000)">
            <path d="M16.9440874,21.9646279 C16.9440874,21.3797606 16.8847609,20.8084381 16.7720676,20.2571619 C16.71545,19.9813884 16.6455585,19.7104911 16.5632057,19.4452826 C16.4808529,19.1800741 16.385497,18.9202835 16.2782217,18.6667236 C16.1709463,18.4137055 16.0520224,18.1663762 15.9214499,17.9263612 C15.7911483,17.6860752 15.6494689,17.4531035 15.4972246,17.2279878 C15.4211025,17.1152945 15.3422713,17.0042266 15.2610021,16.8955967 C15.0984637,16.6780662 14.9253603,16.4689334 14.7430464,16.2681985 C14.5610034,16.0674636 14.3689372,15.8756682 14.1684731,15.6936252 C14.023814,15.5619691 13.8734659,15.4373563 13.7198671,15.3162652 L13.7198671,5.24782344 C13.7198671,4.52317303 13.5730408,3.83292659 13.3075614,3.20498653 C13.2151854,2.98637237 13.1033048,2.778865 12.9832972,2.57677558 C12.7587233,2.19779019 12.4924312,1.84643633 12.1827956,1.53707156 C11.8734308,1.22743589 11.5220769,0.961414691 11.1433624,0.736569891 C10.9410021,0.616291469 10.7332239,0.504681761 10.5148806,0.412305765 C9.88694054,0.146826363 9.19669409,-1.43884904e-13 8.47204369,-1.43884904e-13 C7.38520352,-1.43884904e-13 6.3755691,0.330494766 5.5379545,0.896399327 C5.39817147,0.990400707 5.26353549,1.09117452 5.13404655,1.19844987 C4.4860601,1.73293034 3.96864616,2.42046781 3.63652601,3.20498653 C3.37104661,3.83292659 3.22422025,4.52317303 3.22422025,5.24782344 L3.22422025,15.3162652 C1.26129806,16.8679652 1.08357767e-13,19.2681157 1.08357767e-13,21.9646279 C1.08357767e-13,24.9826953 1.57960244,27.6301751 3.95564309,29.1309464 C4.0458519,29.1878348 4.13741521,29.2430979 4.2297912,29.2967356 C5.47754439,30.0203024 6.92576162,30.4364007 8.47204369,30.4364007 C9.05691106,30.4364007 9.62796267,30.3773451 10.1795097,30.2643809 C10.4552832,30.2080343 10.7261805,30.1381427 10.991389,30.0555191 C11.2565975,29.9731663 11.5163881,29.8780813 11.7696771,29.770535 C12.0229661,29.6635306 12.2702954,29.5443358 12.5103105,29.4140341 C12.7505964,29.2837325 12.9835681,29.1417823 13.2086838,28.9898089 C13.3213771,28.9134158 13.4321741,28.8345847 13.540804,28.7535864 C13.7583346,28.5907771 13.9677382,28.4179446 14.1684731,28.2356307 C14.3689372,28.0533168 14.5610034,27.8615214 14.7430464,27.6607865 C14.9253603,27.4603225 15.0984637,27.2509188 15.2610021,27.0333882 C15.3422713,26.9247584 15.4211025,26.8139614 15.4972246,26.7012681 C15.6494689,26.4758815 15.7911483,26.2429098 15.9214499,26.0026238 C16.0520224,25.7628797 16.1709463,25.5155504 16.2782217,25.2622614 C16.385497,25.0087014 16.4808529,24.7491818 16.5632057,24.4839733 C16.6455585,24.2184939 16.71545,23.9475965 16.7720676,23.6720939 C16.8847609,23.1205469 16.9440874,22.5494953 16.9440874,21.9646279" id="Fill-37" fill="#FFFFFF"></path>
            <path d="M8.47207078,-1.43884904e-13 L8.47207078,-1.43884904e-13 C7.38523061,-1.43884904e-13 6.37559619,0.330494766 5.53798159,0.896399327 C5.39819856,0.990400707 5.26356258,1.09117452 5.13407364,1.19844987 C4.48608719,1.73293034 3.96840235,2.42046781 3.6365531,3.20498653 C3.3710737,3.83292659 3.22424734,4.52317303 3.22424734,5.24782344 L3.22424734,15.3162652 C1.26132515,16.8679652 2.7089735e-05,19.2681157 2.7089735e-05,21.9646279 C2.7089735e-05,24.9826953 1.57962953,27.6301751 3.95567018,29.1309464 C4.04587899,29.1878348 4.1374423,29.2430979 4.22981829,29.2967356 C5.47757148,30.0203024 6.92578871,30.4364007 8.47207078,30.4364007 C9.05693815,30.4364007 9.62798976,30.3773451 10.1795368,30.2643809 C10.4553103,30.2080343 10.7262076,30.1381427 10.9914161,30.0555191 C11.2566246,29.9734372 11.5164152,29.8780813 11.7697042,29.770535 C12.0229932,29.6635306 12.2703225,29.5446067 12.5103376,29.4140341 C12.7503526,29.2837325 12.9835952,29.1417823 13.2087109,28.9898089 C13.3214042,28.9134158 13.4324721,28.8345847 13.541102,28.7535864 C13.7586325,28.5907771 13.9677653,28.4179446 14.1685002,28.2356307 C14.3692352,28.0533168 14.5610305,27.8615214 14.7430735,27.6607865 C14.9253874,27.4603225 15.0982199,27.2509188 15.2610292,27.0333882 C15.3422984,26.9247584 15.4211296,26.8139614 15.4972517,26.7012681 C15.649496,26.4758815 15.7911753,26.2429098 15.921477,26.0026238 C16.0517786,25.7628797 16.1709734,25.5155504 16.2782488,25.2622614 C16.3855241,25.0087014 16.4806091,24.7491818 16.5632328,24.4839733 C16.6455856,24.2184939 16.7154771,23.9475965 16.7720946,23.6720939 C16.8847879,23.1205469 16.9441145,22.5494953 16.9441145,21.9646279 C16.9441145,21.3797606 16.8847879,20.8084381 16.7720946,20.2571619 C16.7154771,19.9813884 16.6455856,19.7104911 16.5632328,19.4452826 C16.4806091,19.1800741 16.3855241,18.9202835 16.2782488,18.6667236 C16.1709734,18.4137055 16.0517786,18.1666471 15.921477,17.9263612 C15.7911753,17.6860752 15.649496,17.4531035 15.4972517,17.2279878 C15.4211296,17.1152945 15.3422984,17.0044975 15.2610292,16.8955967 C15.0982199,16.6780662 14.9253874,16.4689334 14.7430735,16.2681985 C14.5610305,16.0677344 14.3692352,15.8756682 14.1685002,15.6936252 C14.023841,15.5619691 13.8732221,15.4373563 13.7198942,15.3162652 L13.7198942,5.24782344 C13.7198942,4.52317303 13.5730679,3.83292659 13.3075885,3.20498653 C13.2152125,2.98637237 13.1033319,2.778865 12.9833243,2.57677558 C12.7587504,2.19779019 12.4924583,1.84643633 12.1828227,1.53707156 C11.8734579,1.22743589 11.522104,0.961414691 11.1433895,0.736569891 C10.9410292,0.616291469 10.7335218,0.504681761 10.5149077,0.412305765 C9.88696763,0.146826363 9.19672118,-1.43884904e-13 8.47207078,-1.43884904e-13 M8.47207078,1.89628144 C8.92528204,1.89628144 9.36413575,1.98459398 9.77589972,2.15878097 C9.89076019,2.2072716 10.017811,2.27364145 10.1757442,2.36710103 C10.4298459,2.51826175 10.6541489,2.69001067 10.8421517,2.87774254 C11.0298835,3.0657453 11.2019034,3.2903192 11.3527932,3.54442091 C11.4462528,3.70208317 11.5126226,3.82913403 11.5611132,3.9439945 C11.7353002,4.35575847 11.8236128,4.79434128 11.8236128,5.24782344 L11.8236128,15.3162652 L11.8236128,16.2346072 L12.5441997,16.8040334 C12.6845246,16.9148305 12.7953216,17.0077483 12.8928446,17.0966026 C13.0483397,17.238011 13.1986877,17.388359 13.3398252,17.5435832 C13.4812337,17.6990783 13.6166823,17.8632421 13.7423787,18.0314693 C13.8052269,18.1154475 13.8672624,18.2021347 13.9257762,18.2893636 C14.0438874,18.4640924 14.1549554,18.6464063 14.2551874,18.8317001 C14.356503,19.0175357 14.4494208,19.2106855 14.5317736,19.4057316 C14.6149391,19.6021322 14.6891649,19.8047634 14.7525549,20.0084782 C14.8164867,20.2143602 14.8709371,20.425931 14.9142806,20.6375018 C15.0028641,21.0706667 15.047833,21.5171055 15.047833,21.9646279 C15.047833,22.4118795 15.0028641,22.8585892 14.9140097,23.2917541 C14.8709371,23.5033249 14.8164867,23.7146248 14.7525549,23.9207777 C14.6891649,24.1242216 14.6149391,24.3271237 14.5317736,24.5235243 C14.4494208,24.7182995 14.356503,24.9114493 14.2551874,25.0975558 C14.1549554,25.2825787 14.0438874,25.4651635 13.9257762,25.6396214 C13.8672624,25.7268503 13.8052269,25.8135375 13.7423787,25.8977865 C13.6166823,26.0660138 13.4812337,26.2299067 13.3400961,26.3854018 C13.1986877,26.5408969 13.0483397,26.6912449 12.8931155,26.8323824 C12.7376204,26.9737908 12.5734566,27.1092395 12.4052294,27.2349359 C12.3209803,27.2980549 12.2342932,27.3595486 12.1473351,27.4183334 C11.9726063,27.5361737 11.7902924,27.6472416 11.6049986,27.7477445 C11.4188921,27.8490601 11.2257423,27.9419779 11.0309671,28.0243307 C10.8345666,28.1074962 10.6316644,28.1817221 10.4282205,28.2451121 C10.2223385,28.3090438 10.0107677,28.3634942 9.79919689,28.4065669 C9.36603203,28.4951503 8.9195932,28.5401193 8.47207078,28.5401193 C7.31642269,28.5401193 6.17838292,28.234818 5.18093889,27.6561812 C5.10915109,27.6147339 5.03817598,27.5719322 4.96828447,27.527505 C3.04464239,26.3128013 1.89630853,24.2331223 1.89630853,21.9646279 C1.89630853,19.9426501 2.8089617,18.0618098 4.40021273,16.8037625 L5.12052878,16.2346072 L5.12052878,15.3162652 L5.12052878,5.24782344 C5.12052878,4.79434128 5.20884131,4.35575847 5.38302831,3.9439945 C5.59243196,3.44879415 5.92373942,3.00533519 6.34092133,2.66075376 C6.42354502,2.59248763 6.51077397,2.52747226 6.5993574,2.46733305 C7.15280069,2.09376561 7.80024535,1.89628144 8.47207078,1.89628144" id="Fill-38" fill="#B9B9B9"></path>
            <path d="M8.47207078,21.938974 C7.37087305,21.938974 6.47501552,21.0431164 6.47501552,19.9419187 L6.47501552,5.24790471 C6.47501552,4.14643609 7.37087305,3.25084945 8.47207078,3.25084945 C9.5732685,3.25084945 10.469126,4.14643609 10.469126,5.24790471 L10.469126,19.9419187 C10.469126,21.0431164 9.5732685,21.938974 8.47207078,21.938974" id="Fill-39" fill="#FFFFFF"></path>
            <path d="M6.47498843,9.25732092 L6.47498843,19.9417833 C6.47498843,21.0432519 7.37084596,21.9388385 8.47204369,21.9388385 C9.57324141,21.9388385 10.4690989,21.0432519 10.4690989,19.9417833 L10.4690989,9.25732092 L6.47498843,9.25732092 Z" id="Fill-40" fill="#CC4E07"></path>
            <path d="M8.47207078,27.185768 C5.59324465,27.185768 3.25106617,24.8435895 3.25106617,21.9647634 C3.25106617,19.0856664 5.59324465,16.743217 8.47207078,16.743217 C11.3508969,16.743217 13.6933463,19.0856664 13.6933463,21.9647634 C13.6933463,24.8435895 11.3508969,27.185768 8.47207078,27.185768" id="Fill-41" fill="#CC4E07"></path>
        </g>
    </g>
</svg>